<svg width="1280" height="160" viewBox="0 0 1280 160" fill="none" xmlns="http://www.w3.org/2000/svg">
<g clip-path="url(#clip0_413_10440)">
<path d="M-3.4853e-06 80.2655L159.628 80.2655C159.628 124.301 123.895 160 79.8153 160C35.7354 160 -1.56046e-06 124.301 -3.4853e-06 80.2655Z" fill="#05CC98"/>
<path d="M80 40.306C80 18.237 62.0914 0.346593 40 0.346594C17.9086 0.346595 -2.71135e-06 18.2371 -1.74668e-06 40.306C-7.82017e-07 62.375 17.9086 80.2655 40 80.2655C62.0914 80.2655 80 62.375 80 40.306Z" fill="#38E680"/>
<path d="M160 40.306C160 18.237 142.091 0.346593 120 0.346594C97.9087 0.346595 80.0001 18.2371 80.0001 40.306C80.0001 62.375 97.9087 80.2655 120 80.2655C142.091 80.2655 160 62.375 160 40.306Z" fill="#38E680"/>
<path d="M160 80.0811L319.628 80.081C319.628 36.0457 283.895 0.346537 239.815 0.346539C195.735 0.346541 160 36.0457 160 80.0811Z" fill="#05CC98"/>
<path d="M240 120.041C240 97.9715 222.091 80.0811 200 80.0811C177.909 80.0811 160 97.9715 160 120.041C160 142.11 177.909 160 200 160C222.091 160 240 142.11 240 120.041Z" fill="#38E680"/>
<path d="M320 120.041C320 97.9715 302.091 80.0811 280 80.0811C257.909 80.0811 240 97.9715 240 120.041C240 142.11 257.909 160 280 160C302.091 160 320 142.11 320 120.041Z" fill="#38E680"/>
<path d="M320 80.2655L479.628 80.2655C479.628 124.301 443.895 160 399.815 160C355.735 160 320 124.301 320 80.2655Z" fill="#05CC98"/>
<path d="M400 40.306C400 18.237 382.091 0.346593 360 0.346594C337.909 0.346595 320 18.2371 320 40.306C320 62.375 337.909 80.2655 360 80.2655C382.091 80.2655 400 62.375 400 40.306Z" fill="#38E680"/>
<path d="M480 40.306C480 18.237 462.091 0.346593 440 0.346594C417.909 0.346595 400 18.2371 400 40.306C400 62.375 417.909 80.2655 440 80.2655C462.091 80.2655 480 62.375 480 40.306Z" fill="#38E680"/>
<path d="M480 80.0811L639.628 80.081C639.628 36.0457 603.895 0.346537 559.815 0.346539C515.735 0.346541 480 36.0457 480 80.0811Z" fill="#05CC98"/>
<path d="M560 120.041C560 97.9715 542.091 80.0811 520 80.0811C497.909 80.0811 480 97.9715 480 120.041C480 142.11 497.909 160 520 160C542.091 160 560 142.11 560 120.041Z" fill="#38E680"/>
<path d="M640 120.041C640 97.9715 622.091 80.0811 600 80.0811C577.909 80.0811 560 97.9715 560 120.041C560 142.11 577.909 160 600 160C622.091 160 640 142.11 640 120.041Z" fill="#38E680"/>
<path d="M640 80.2655L799.628 80.2655C799.628 124.301 763.895 160 719.815 160C675.735 160 640 124.301 640 80.2655Z" fill="#05CC98"/>
<path d="M720 40.306C720 18.237 702.091 0.346593 680 0.346594C657.909 0.346595 640 18.2371 640 40.306C640 62.375 657.909 80.2655 680 80.2655C702.091 80.2655 720 62.375 720 40.306Z" fill="#38E680"/>
<path d="M800 40.306C800 18.237 782.091 0.346593 760 0.346594C737.909 0.346595 720 18.2371 720 40.306C720 62.375 737.909 80.2655 760 80.2655C782.091 80.2655 800 62.375 800 40.306Z" fill="#38E680"/>
<path d="M800 80.0811L959.628 80.081C959.628 36.0457 923.895 0.346537 879.815 0.346539C835.735 0.346541 800 36.0457 800 80.0811Z" fill="#05CC98"/>
<path d="M880 120.041C880 97.9715 862.091 80.0811 840 80.0811C817.909 80.0811 800 97.9715 800 120.041C800 142.11 817.909 160 840 160C862.091 160 880 142.11 880 120.041Z" fill="#38E680"/>
<path d="M960 120.041C960 97.9715 942.091 80.0811 920 80.0811C897.909 80.0811 880 97.9715 880 120.041C880 142.11 897.909 160 920 160C942.091 160 960 142.11 960 120.041Z" fill="#38E680"/>
<path d="M960 80.2655L1119.63 80.2655C1119.63 124.301 1083.9 160 1039.82 160C995.735 160 960 124.301 960 80.2655Z" fill="#05CC98"/>
<path d="M1040 40.306C1040 18.237 1022.09 0.346593 1000 0.346594C977.909 0.346595 960 18.2371 960 40.306C960 62.375 977.909 80.2655 1000 80.2655C1022.09 80.2655 1040 62.375 1040 40.306Z" fill="#38E680"/>
<path d="M1120 40.306C1120 18.237 1102.09 0.346593 1080 0.346594C1057.91 0.346595 1040 18.2371 1040 40.306C1040 62.375 1057.91 80.2655 1080 80.2655C1102.09 80.2655 1120 62.375 1120 40.306Z" fill="#38E680"/>
<path d="M1120 80.0811L1279.63 80.081C1279.63 36.0457 1243.9 0.346537 1199.82 0.346539C1155.74 0.346541 1120 36.0457 1120 80.0811Z" fill="#05CC98"/>
<path d="M1200 120.041C1200 97.9715 1182.09 80.0811 1160 80.0811C1137.91 80.0811 1120 97.9715 1120 120.041C1120 142.11 1137.91 160 1160 160C1182.09 160 1200 142.11 1200 120.041Z" fill="#38E680"/>
<path d="M1280 120.041C1280 97.9715 1262.09 80.0811 1240 80.0811C1217.91 80.0811 1200 97.9715 1200 120.041C1200 142.11 1217.91 160 1240 160C1262.09 160 1280 142.11 1280 120.041Z" fill="#38E680"/>
</g>
<defs>
<clipPath id="clip0_413_10440">
<rect width="160" height="1280" fill="white" transform="translate(0 160) rotate(-90)"/>
</clipPath>
</defs>
</svg>
