<svg width="10" height="10" viewBox="0 0 10 10" fill="none" xmlns="http://www.w3.org/2000/svg">
<path d="M6.06081 5L9.26591 1.795L9.92687 1.13406C10.0244 1.03656 10.0244 0.878125 9.92687 0.780625L9.21966 0.0734376C9.12216 -0.0240624 8.96372 -0.0240624 8.86621 0.0734376L5.00016 3.93937L1.1341 0.073125C1.03659 -0.024375 0.878152 -0.024375 0.780649 0.073125L0.0731273 0.780313C-0.0243758 0.877813 -0.0243758 1.03625 0.0731273 1.13375L3.9395 5L0.0731273 8.86594C-0.0243758 8.96344 -0.0243758 9.12187 0.0731273 9.21937L0.780337 9.92656C0.87784 10.0241 1.03628 10.0241 1.13379 9.92656L5.00016 6.06063L8.20526 9.26562L8.86621 9.92656C8.96372 10.0241 9.12216 10.0241 9.21966 9.92656L9.92687 9.21937C10.0244 9.12187 10.0244 8.96344 9.92687 8.86594L6.06081 5Z" fill="black" fill-opacity="0.54"/>
</svg>
