<svg width="72" height="146" viewBox="0 0 72 146" fill="none" xmlns="http://www.w3.org/2000/svg">
<g clip-path="url(#clip0_533_11351)">
<rect width="71.9169" height="146" fill="#0D9E7A"/>
<path d="M35.9169 0V72.3313C16.0809 72.3313 0 56.1401 0 36.1663C0 16.1926 16.0809 0 35.9169 0Z" fill="#05CC98"/>
<path d="M53.9169 36.25C63.8581 36.25 71.9169 28.1352 71.9169 18.125C71.9169 8.11484 63.8581 0 53.9169 0C43.9758 0 35.9169 8.11484 35.9169 18.125C35.9169 28.1352 43.9758 36.25 53.9169 36.25Z" fill="#38E680"/>
<path d="M53.9169 72.5C63.8581 72.5 71.9169 64.3852 71.9169 54.375C71.9169 44.3648 63.8581 36.25 53.9169 36.25C43.9758 36.25 35.9169 44.3648 35.9169 54.375C35.9169 64.3852 43.9758 72.5 53.9169 72.5Z" fill="#38E680"/>
<path d="M36 73.5V145.831C55.836 145.831 71.9169 129.64 71.9169 109.666C71.9169 89.6926 55.836 73.5 36 73.5Z" fill="#05CC98"/>
<path d="M18 109.75C27.9411 109.75 36 101.635 36 91.625C36 81.6148 27.9411 73.5 18 73.5C8.05887 73.5 0 81.6148 0 91.625C0 101.635 8.05887 109.75 18 109.75Z" fill="#38E680"/>
<path d="M18 146C27.9411 146 36 137.885 36 127.875C36 117.865 27.9411 109.75 18 109.75C8.05887 109.75 0 117.865 0 127.875C0 137.885 8.05887 146 18 146Z" fill="#38E680"/>
</g>
<defs>
<clipPath id="clip0_533_11351">
<rect width="71.9169" height="146" fill="white"/>
</clipPath>
</defs>
</svg>
