<svg width="20" height="21" viewBox="0 0 20 21" fill="none" xmlns="http://www.w3.org/2000/svg">
<path d="M5.00008 16.4076C5.00008 17.3242 5.75008 18.0742 6.66675 18.0742H13.3334C14.2501 18.0742 15.0001 17.3242 15.0001 16.4076V8.07422C15.0001 7.15755 14.2501 6.40755 13.3334 6.40755H6.66675C5.75008 6.40755 5.00008 7.15755 5.00008 8.07422V16.4076ZM15.0001 3.90755H12.9167L12.3251 3.31589C12.1751 3.16589 11.9584 3.07422 11.7417 3.07422H8.25841C8.04175 3.07422 7.82508 3.16589 7.67508 3.31589L7.08341 3.90755H5.00008C4.54175 3.90755 4.16675 4.28255 4.16675 4.74089C4.16675 5.19922 4.54175 5.57422 5.00008 5.57422H15.0001C15.4584 5.57422 15.8334 5.19922 15.8334 4.74089C15.8334 4.28255 15.4584 3.90755 15.0001 3.90755Z" fill="black" fill-opacity="0.54"/>
</svg>
