<svg width="122" height="29" viewBox="0 0 122 29" fill="none" xmlns="http://www.w3.org/2000/svg">
<g clip-path="url(#clip0_205_5972)">
<path d="M84.9608 4.38171C86.9423 4.37683 88.8807 4.96698 90.531 6.07753C92.1813 7.18808 93.4694 8.76919 94.2325 10.621C94.9956 12.4728 95.1994 14.5121 94.8182 16.4812C94.4369 18.4502 93.4878 20.2606 92.0906 21.6835C90.6935 23.1064 88.9111 24.0778 86.9689 24.4751C85.0266 24.8723 83.0117 24.6775 81.1788 23.9153C79.3458 23.1531 77.7772 21.8576 76.6712 20.1928C75.5651 18.5279 74.9714 16.5683 74.9649 14.5618C74.9574 13.2276 75.2104 11.9052 75.7094 10.6704C76.2084 9.43562 76.9435 8.31291 77.8724 7.36685C78.8014 6.42078 79.9059 5.67001 81.1223 5.15771C82.3388 4.64541 83.6433 4.38169 84.9608 4.38171ZM84.9608 0C82.1296 0 79.362 0.850167 77.008 2.443C74.6539 4.03582 72.8192 6.29977 71.7358 8.94855C70.6523 11.5973 70.3688 14.512 70.9212 17.3239C71.4735 20.1358 72.8369 22.7187 74.8388 24.746C76.8407 26.7733 79.3914 28.1539 82.1681 28.7132C84.9449 29.2726 87.8231 28.9855 90.4388 27.8883C93.0544 26.7912 95.2901 24.9332 96.863 22.5494C98.4359 20.1655 99.2755 17.3629 99.2755 14.4959C99.2669 10.654 97.756 6.97198 95.0733 4.25535C92.3906 1.53873 88.7546 0.0087019 84.9608 0Z" fill="#EF8035"/>
<path d="M68.011 24.676H55.7377V2.19087C55.704 1.63411 55.4618 1.11135 55.0605 0.729199C54.6593 0.347046 54.1292 0.134277 53.5783 0.134277C53.0275 0.134277 52.4974 0.347046 52.0962 0.729199C51.6949 1.11135 51.4527 1.63411 51.419 2.19087V26.8998C51.4168 27.1718 51.4681 27.4417 51.5699 27.6935C51.6718 27.9453 51.822 28.174 52.0121 28.3665C52.2021 28.5589 52.428 28.7111 52.6766 28.8142C52.9253 28.9173 53.1917 28.9693 53.4604 28.9671H67.954C68.4998 28.9612 69.0225 28.7435 69.4145 28.3589C69.8064 27.9743 70.0377 27.452 70.0605 26.8998V26.7186C70.0628 26.4469 70.0111 26.1775 69.9085 25.9265C69.8059 25.6755 69.6545 25.4479 69.4632 25.2574C69.272 25.0668 69.0449 24.9171 68.7954 24.8173C68.5459 24.7174 68.2792 24.6693 68.011 24.676Z" fill="#FFAF3B"/>
<path d="M45.5467 28.6376C45.9338 28.3988 46.2341 28.0394 46.4027 27.6133C46.5713 27.1872 46.5991 26.7172 46.482 26.2738C46.482 26.2161 46.4251 26.1585 46.4251 26.0926V26.0267L46.36 25.9773L35.0547 1.48254C35.0011 1.23657 34.8798 1.01098 34.7049 0.831869L34.648 0.774215L34.5911 0.716562L34.5341 0.65067L34.4691 0.593016L34.4121 0.535362L34.2983 0.494181L34.2413 0.436527L34.16 0.354166L34.0461 0.296509H33.9892L33.8672 0.238855L33.7533 0.181201H33.6964C33.2248 0.00022791 32.704 0.00022791 32.2324 0.181201L32.0616 0.238855L31.8827 0.354166L31.72 0.494181L31.598 0.551835V0.609489L31.5411 0.667143C31.3749 0.862772 31.2379 1.08199 31.1344 1.31781L19.8047 25.6808C19.5686 26.0743 19.464 26.5344 19.5065 26.9928C19.549 27.4513 19.7362 27.8836 20.0405 28.2258L20.0975 28.2834L20.1544 28.3411L20.2195 28.407L20.2764 28.4646L20.3903 28.5223H20.4472L20.5692 28.58L20.6831 28.6376L20.74 28.7035L20.862 28.7612L20.9759 28.8188H21.0328C21.4671 28.9596 21.9346 28.9555 22.3665 28.8073C22.7983 28.659 23.1719 28.3744 23.4321 27.9952L23.546 27.8222L23.5867 27.7563L23.6436 27.6904L33.1271 7.28089L42.4153 27.5175C42.5394 27.9519 42.8024 28.3324 43.163 28.5992C43.5237 28.866 43.9615 29.0041 44.408 28.9918H44.9285L45.0505 28.9341L45.1644 28.8188H45.2213L45.2783 28.7612L45.5467 28.6376Z" fill="#38E680"/>
<path d="M10.0528 0H2.16345C1.58966 0 1.03938 0.230821 0.633648 0.641685C0.227919 1.05255 -1.65153e-05 1.6098 -1.65153e-05 2.19085C0.000141318 2.70739 0.183261 3.20673 0.516076 3.59817C0.848891 3.98961 1.30932 4.24717 1.81372 4.32406H10.0528C11.5714 4.32406 13.0278 4.93495 14.1016 6.02235C15.1754 7.10975 15.7786 8.58459 15.7786 10.1224C15.7786 11.6602 15.1754 13.1351 14.1016 14.2225C13.0278 15.3099 11.5714 15.9208 10.0528 15.9208H1.81372C1.3046 16.0102 0.843183 16.2793 0.511211 16.6803C0.179239 17.0813 -0.00186439 17.5883 -1.65153e-05 18.1116V26.8503C-1.65153e-05 27.4314 0.227919 27.9886 0.633648 28.3995C1.03938 28.8104 1.58966 29.0412 2.16345 29.0412C2.73724 29.0412 3.28752 28.8104 3.69325 28.3995C4.09898 27.9886 4.32692 27.4314 4.32692 26.8503V20.3437H10.0203C12.6294 20.2684 15.1068 19.1659 16.9261 17.2704C18.7453 15.3748 19.7631 12.8357 19.7631 10.1924C19.7631 7.54913 18.7453 5.00999 16.9261 3.11448C15.1068 1.21896 12.6294 0.11645 10.0203 0.0411809L10.0528 0Z" fill="#05CC98"/>
<path d="M105.872 0H105.636C105.352 0.0312041 105.09 0.171671 104.906 0.392388C104.721 0.613106 104.627 0.897213 104.643 1.18603V13.3181C104.629 13.462 104.643 13.6075 104.686 13.7456C104.728 13.8837 104.798 14.0117 104.891 14.1218C104.984 14.2319 105.098 14.3218 105.226 14.3861C105.354 14.4504 105.493 14.4877 105.636 14.4959H105.872C106.157 14.4707 106.42 14.3331 106.606 14.1127C106.791 13.8924 106.884 13.607 106.864 13.3181V1.18603C106.884 0.896251 106.792 0.609902 106.606 0.388247C106.421 0.166593 106.157 0.0272403 105.872 0Z" fill="#706F67"/>
<path d="M120.829 1.62637e-05H111.654C111.512 -0.0146835 111.369 -5.61685e-05 111.232 0.0430194C111.096 0.086095 110.969 0.156725 110.861 0.250639C110.752 0.344553 110.663 0.459805 110.6 0.589433C110.536 0.719062 110.499 0.860375 110.491 1.00484V1.18604C110.518 1.47375 110.655 1.73955 110.872 1.92712C111.089 2.11468 111.37 2.20928 111.654 2.19087H114.989V13.3181C114.975 13.4621 114.989 13.6075 115.032 13.7456C115.074 13.8838 115.144 14.0117 115.237 14.1218C115.329 14.2319 115.443 14.3218 115.571 14.3861C115.699 14.4504 115.839 14.4877 115.981 14.4959H116.217C116.501 14.4687 116.764 14.3305 116.949 14.1106C117.134 13.8908 117.228 13.6065 117.209 13.3181V2.19087H120.829C120.972 2.20676 121.116 2.19302 121.253 2.15049C121.391 2.10796 121.518 2.03753 121.628 1.9435C121.737 1.84947 121.827 1.73381 121.891 1.60358C121.955 1.47335 121.992 1.33128 122 1.18604V1.00484C121.971 0.716436 121.833 0.4506 121.615 0.263213C121.396 0.0758261 121.114 -0.0185151 120.829 1.62637e-05Z" fill="#706F67"/>
</g>
<defs>
<clipPath id="clip0_205_5972">
<rect width="122" height="29" fill="white"/>
</clipPath>
</defs>
</svg>
