<svg width="44" height="45" viewBox="0 0 44 45" fill="none" xmlns="http://www.w3.org/2000/svg">
<mask id="mask0_1105_16678" style="mask-type:luminance" maskUnits="userSpaceOnUse" x="0" y="0" width="44" height="45">
<path d="M22.2105 44.2089C34.2006 44.2089 43.9205 34.489 43.9205 22.4989C43.9205 10.5088 34.2006 0.78894 22.2105 0.78894C10.2204 0.78894 0.500488 10.5088 0.500488 22.4989C0.500488 34.489 10.2204 44.2089 22.2105 44.2089Z" fill="white"/>
</mask>
<g mask="url(#mask0_1105_16678)">
<path d="M59.0778 0.531128H-14.6675V15.1728H59.0778V0.531128Z" fill="#41A9FF"/>
<path d="M59.0778 15.1729H-14.6675V29.8145H59.0778V15.1729Z" fill="white"/>
<path d="M59.0778 29.8252H-14.6675V44.4668H59.0778V29.8252Z" fill="#41A9FF"/>
<path d="M22.1138 25.711C23.8877 25.711 25.3257 24.2729 25.3257 22.499C25.3257 20.7251 23.8877 19.2871 22.1138 19.2871C20.3399 19.2871 18.9019 20.7251 18.9019 22.499C18.9019 24.2729 20.3399 25.711 22.1138 25.711Z" fill="#F58500"/>
<path d="M21.7808 20.5117L22.0708 15.7207H22.146L22.4468 20.5117H21.7808Z" fill="#F58500"/>
<path d="M22.4468 24.4863L22.146 29.2774H22.0708L21.7808 24.4863H22.4468Z" fill="#F58500"/>
<path d="M24.1011 22.166L28.8921 22.4561V22.5313L24.1011 22.832V22.166Z" fill="#F58500"/>
<path d="M20.1265 22.832L15.3354 22.5313V22.4561L20.1265 22.166V22.832Z" fill="#F58500"/>
<path d="M23.2847 20.8662L26.8833 17.6758L26.937 17.7295L23.7466 21.3281L23.2847 20.8662Z" fill="#F58500"/>
<path d="M20.9429 24.1318L17.3442 27.3223L17.2905 27.2686L20.481 23.6699L20.9429 24.1318Z" fill="#F58500"/>
<path d="M23.7466 23.6699L26.937 27.2686L26.8833 27.3223L23.2847 24.1318L23.7466 23.6699Z" fill="#F58500"/>
<path d="M20.481 21.3281L17.2905 17.7295L17.3442 17.6758L20.9429 20.8662L20.481 21.3281Z" fill="#F58500"/>
<path d="M22.5757 20.544L24.7241 16.2363L24.7886 16.2686L23.188 20.8018L22.5757 20.544Z" fill="#F58500"/>
<path d="M21.6519 24.4541L19.5034 28.7617L19.439 28.7295L21.0396 24.1963L21.6519 24.4541Z" fill="#F58500"/>
<path d="M24.0688 22.9609L28.3765 25.1094L28.3442 25.1738L23.811 23.5732L24.0688 22.9609Z" fill="#F58500"/>
<path d="M20.1587 22.037L15.8511 19.8886L15.8833 19.8241L20.4165 21.4247L20.1587 22.037Z" fill="#F58500"/>
<path d="M23.8218 21.4462L28.3872 19.91L28.4087 19.9852L24.0796 22.0585L23.8218 21.4462Z" fill="#F58500"/>
<path d="M20.4058 23.5516L15.8403 25.077L15.8188 25.0126L20.148 22.9393L20.4058 23.5516Z" fill="#F58500"/>
<path d="M23.1665 24.207L24.7026 28.7725L24.6274 28.794L22.5542 24.4648L23.1665 24.207Z" fill="#F58500"/>
<path d="M21.061 20.7909L19.5356 16.2255L19.6001 16.204L21.6733 20.5331L21.061 20.7909Z" fill="#F58500"/>
<path d="M22.1782 20.4902L23.4136 15.8389L23.4888 15.8604L22.8335 20.6192L22.1782 20.4902Z" fill="#F58500"/>
<path d="M22.0493 24.5078L20.814 29.1484L20.7388 29.1377L21.394 24.3789L22.0493 24.5078Z" fill="#F58500"/>
<path d="M24.1226 22.5635L28.7739 23.7988L28.7524 23.874L23.9937 23.2188L24.1226 22.5635Z" fill="#F58500"/>
<path d="M20.105 22.4346L15.4536 21.1992L15.4751 21.124L20.2339 21.7793L20.105 22.4346Z" fill="#F58500"/>
<path d="M23.5747 21.124L27.7427 18.707L27.7857 18.7715L23.9507 21.6719L23.5747 21.124Z" fill="#F58500"/>
<path d="M20.6528 23.874L16.4849 26.291L16.4419 26.2266L20.2769 23.3154L20.6528 23.874Z" fill="#F58500"/>
<path d="M23.4888 23.96L25.9058 28.1172L25.8413 28.1602L22.9409 24.3359L23.4888 23.96Z" fill="#F58500"/>
<path d="M20.7388 21.0274L18.3218 16.8701L18.3862 16.8271L21.2974 20.6621L20.7388 21.0274Z" fill="#F58500"/>
<path d="M22.9517 20.6729L25.9058 16.8701L25.9702 16.9131L23.5103 21.0488L22.9517 20.6729Z" fill="#F58500"/>
<path d="M21.2759 24.3251L18.3218 28.1171L18.2681 28.0741L20.728 23.9491L21.2759 24.3251Z" fill="#F58500"/>
<path d="M23.9399 23.3368L27.7427 26.2909L27.6997 26.3446L23.564 23.8846L23.9399 23.3368Z" fill="#F58500"/>
<path d="M20.2876 21.6504L16.4849 18.707L16.5278 18.6426L20.6636 21.1025L20.2876 21.6504Z" fill="#F58500"/>
<path d="M24.0044 21.8008L28.7739 21.1992L28.7847 21.2744L24.1226 22.4561L24.0044 21.8008Z" fill="#F58500"/>
<path d="M20.2232 23.1971L15.4536 23.7987L15.4429 23.7235L20.105 22.5419L20.2232 23.1971Z" fill="#F58500"/>
<path d="M22.812 24.3789L23.4136 29.1484L23.3384 29.1699L22.1567 24.5078L22.812 24.3789Z" fill="#F58500"/>
<path d="M21.4155 20.6084L20.814 15.8389L20.8892 15.8281L22.0708 20.4902L21.4155 20.6084Z" fill="#F58500"/>
<path d="M24.6059 22.4989C24.6081 22.9923 24.4637 23.4752 24.1912 23.8864C23.9186 24.2977 23.5301 24.6188 23.0749 24.8091C22.6197 24.9993 22.1183 25.0502 21.6342 24.9553C21.15 24.8603 20.705 24.6238 20.3553 24.2757C20.0057 23.9276 19.7673 23.4836 19.6703 22.9998C19.5732 22.5161 19.6219 22.0145 19.8103 21.5584C19.9986 21.1024 20.318 20.7126 20.7281 20.4382C21.1381 20.1639 21.6204 20.0175 22.1138 20.0175C22.4405 20.0161 22.7644 20.0792 23.0667 20.2033C23.369 20.3273 23.6438 20.5099 23.8754 20.7405C24.1069 20.971 24.2907 21.2451 24.416 21.5468C24.5414 21.8486 24.6059 22.1722 24.6059 22.4989Z" fill="#FFD400"/>
</g>
<g style="mix-blend-mode:multiply">
<path d="M34.2033 6.2383L34.2062 6.24047C36.7577 8.11253 38.8312 10.5605 40.258 13.3852C41.6848 16.2099 42.4247 19.3316 42.4174 22.4962V22.4999C42.418 27.0454 40.8861 31.4583 38.0692 35.0258C35.2523 38.5933 31.315 41.1069 26.8932 42.1606C22.4715 43.2143 17.8237 42.7465 13.7007 40.8328C9.57763 38.9191 6.22016 35.6712 4.1707 31.6139C2.12124 27.5566 1.49946 22.9268 2.40588 18.4726C3.31229 14.0184 5.69396 9.99977 9.16605 7.06607C12.6381 4.1324 16.9978 2.45508 21.5409 2.30487C26.084 2.15466 30.545 3.54037 34.2033 6.2383Z" stroke="#E2E3EB" stroke-width="3" stroke-miterlimit="10"/>
</g>
</svg>
