<svg width="44" height="45" viewBox="0 0 44 45" fill="none" xmlns="http://www.w3.org/2000/svg">
<path d="M35.1114 5.04013C31.1836 2.13796 26.392 0.644879 21.5108 0.802162C16.6297 0.959445 11.9441 2.7579 8.2113 5.90692C4.47848 9.05595 1.91643 13.3716 0.939149 18.1565C-0.038129 22.9414 0.626452 27.916 2.82551 32.2766C5.02456 36.6372 8.62963 40.1289 13.0582 42.1876C17.4867 44.2463 22.4801 44.7518 27.2313 43.6222C31.9826 42.4927 36.2142 39.7941 39.2425 35.9627C42.2707 32.1312 43.9186 27.3906 43.92 22.507C43.9278 19.1081 43.1342 15.7553 41.6038 12.7205C40.0733 9.68573 37.8491 7.05445 35.1114 5.04013Z" fill="#009B2D"/>
<path d="M4.41016 22.4747L22.4356 34.1623L40.461 22.4425L22.4356 10.8517L4.41016 22.4747ZM30.0733 22.4747C30.0596 22.8494 30.0201 23.2227 29.9551 23.5919C29.9551 23.7208 29.9551 23.8498 29.8799 23.9787C29.794 24.4191 29.6758 24.7951 29.6758 24.7951C29.1328 26.5418 27.9784 28.0344 26.4242 28.9991C24.8701 29.9638 23.0203 30.336 21.2139 30.0476C19.4076 29.7591 17.7657 28.8293 16.5893 27.4286C15.4128 26.0279 14.7807 24.25 14.8086 22.421C14.8115 21.7611 14.8981 21.1041 15.0664 20.466C15.0664 20.38 15.0664 20.2833 15.1416 20.1759C15.2168 20.0685 15.1416 20.0255 15.2168 19.9503L15.3565 19.5636C15.3565 19.4992 15.4102 19.424 15.4424 19.3595V19.2736C16.1398 17.6568 17.3766 16.3322 18.9417 15.5256C20.5068 14.7189 22.3033 14.4803 24.0246 14.8505C25.746 15.2206 27.2857 16.1765 28.3809 17.5552C29.4761 18.9338 30.0591 20.6498 30.0303 22.4103L30.0733 22.4747Z" fill="#FFDF00"/>
<path d="M15.1523 20.2081C15.1822 20.1346 15.2073 20.0593 15.2275 19.9825C15.2061 20.0577 15.1738 20.1329 15.1523 20.2081Z" fill="#002279"/>
<path d="M15.3672 19.5958L15.4531 19.3917C15.4209 19.4562 15.3994 19.5314 15.3672 19.5958Z" fill="#002279"/>
<path d="M15.088 20.4874C14.9197 21.1256 14.8331 21.7825 14.8302 22.4425C14.8023 24.2715 15.4345 26.0493 16.6109 27.45C17.7873 28.8508 19.4292 29.7806 21.2356 30.069C23.0419 30.3575 24.8917 29.9852 26.4458 29.0205C28 28.0558 29.1544 26.5633 29.6974 24.8165C27.5739 22.8476 24.9874 21.4472 22.1779 20.7452C19.8535 20.2021 17.4458 20.1146 15.088 20.4874ZM16.1086 25.1925L15.9904 25.1173L15.84 25.2355V25.0421L15.6789 24.9239H15.883L15.9367 24.7413L16.0011 24.9239H16.1945L16.0334 25.0421L16.1086 25.1925ZM16.4093 21.2931L16.2267 21.1534L16.0334 21.2931L16.1086 21.0567L15.9152 20.9171H16.1515L16.2267 20.6915L16.2912 20.9171H16.5275L16.3449 21.0567L16.4093 21.2931ZM17.0646 24.6231L16.8498 24.4728L16.6349 24.6231L16.7209 24.3761L16.506 24.2149H16.7746L16.8498 23.9571L16.9357 24.2149H17.2043L16.9894 24.3761L17.0646 24.6231ZM17.7091 23.9571L17.6125 23.8927L17.505 23.9571V23.839L17.3976 23.7638H17.5265H17.6554L17.548 23.839L17.7091 23.9571ZM18.3644 26.1056L18.2033 25.9982L18.0529 26.1056L18.1066 25.923L17.9562 25.8048H18.1496L18.2033 25.6222L18.2677 25.8048H18.4611L18.3107 25.923L18.3644 26.1056ZM18.6007 25.3321L18.4396 25.2247L18.2785 25.3321L18.3429 25.1495L18.1818 25.0314H18.3752L18.4396 24.8487L18.5041 25.0314H18.6974L18.5363 25.1495L18.6007 25.3321ZM19.5138 26.836L19.3312 26.7071L19.2131 26.8038L19.2775 26.589L19.1056 26.4601H19.3205L19.3849 26.2452L19.4601 26.4601H19.675L19.5031 26.589L19.5138 26.836ZM19.6965 23.044L19.5353 22.9259L19.3634 23.044L19.4279 22.8507L19.2131 22.6788H19.4279L19.4924 22.4855L19.5568 22.6788H19.7609L19.589 22.8077L19.6965 23.044ZM21.6515 24.505L21.5119 24.6124L21.5656 24.4405L21.4259 24.3331H21.5978L21.6515 24.1612L21.716 24.3331H21.8879L21.7482 24.4405L21.8019 24.6124L21.6515 24.505ZM21.9308 25.1065V24.9884L21.8234 24.9024H21.9523H22.0812L21.9738 24.9884V25.1065L21.8664 25.0314L21.9308 25.1065ZM22.5217 28.63L22.4357 28.5333L22.3713 28.587V28.5011H22.3068H22.4357V28.4151H22.5217H22.4465L22.5217 28.63ZM26.3674 28.4151L26.2385 28.3185L26.1203 28.4151V28.2648L26.0021 28.1788H26.1525V28.0392L26.2062 28.1788H26.3566L26.2277 28.2648L26.3674 28.4151ZM28.7736 25.1925V25.0421L28.881 25.1925V25.3429L28.7521 25.2462L28.634 25.3429V25.1925H28.6125H28.7736ZM28.3439 25.8263L28.1828 25.9444L28.2472 26.1378L28.0754 26.0196L27.9142 26.1378L27.9787 25.9444L27.8068 25.7726H28.0109L28.0754 25.5685L28.1398 25.7726L28.3439 25.8263ZM27.6887 25.1173L27.7638 24.881L27.839 25.1173H28.0861L27.8928 25.2677L27.9679 25.504L27.8068 25.2999L27.6135 25.4503L27.6887 25.214L27.4845 25.0636L27.6887 25.1173ZM27.5383 26.4171L27.6027 26.213L27.6672 26.4171H27.8713L27.7101 26.5353L27.7746 26.7286L27.6027 26.6105L27.4416 26.7286L27.506 26.5353L27.3342 26.4171H27.5383ZM26.9474 26.836L27.0011 26.6857V26.836H27.1623L27.0334 26.9327L27.0871 27.0831L26.9582 26.9864L26.8293 27.0831L26.883 26.9327L26.7541 26.836H26.9474ZM26.3351 27.5343L26.3888 27.7062L26.2492 27.5987L26.0988 27.7062L26.1525 27.5343L26.0129 27.4269H26.1955L26.2492 27.255L26.3029 27.4269H26.4855L26.3351 27.5343ZM26.1525 26.6857H26.3029L26.1847 26.7716V26.922L26.0666 26.8253L25.9484 26.922V26.7716L25.8302 26.6857H26.1525ZM25.3254 26.9649V26.8146L25.3791 26.9649H25.5187L25.4006 27.0509L25.4543 27.1905L25.3254 27.1046L25.2072 27.1905V27.0509L25.089 26.9649H25.3254ZM24.7775 27.631H24.9601L24.8097 27.7384L24.8742 27.921L24.7238 27.8136L24.5734 27.921L24.6271 27.7384L24.4875 27.631H24.6701L24.7238 27.4591L24.7775 27.631ZM24.466 22.0772H24.5949L24.4875 22.1524V22.2814L24.3801 22.2062L24.2726 22.2814V22.1524L24.1652 22.0772H24.466ZM24.0685 26.7608H24.2189L24.1008 26.8468V26.9864L23.9826 26.9005L23.8644 26.9864V26.8468L23.7463 26.7608H24.0685ZM23.2629 24.3546L23.3166 24.1612L23.381 24.3546H23.5851L23.424 24.4835L23.4884 24.6769L23.3166 24.5587L23.1554 24.6769L23.2199 24.4835L23.0588 24.3546H23.2629ZM22.6076 26.2345L22.4357 26.0519L22.2638 26.1808L22.3283 25.9659L22.1564 25.837H22.3713L22.4357 25.6329L22.5002 25.837H22.7258L22.5431 25.9659L22.6076 26.2345ZM22.4357 23.4093L22.5002 23.6026H22.7043L22.5431 23.7208L22.5968 23.9142L22.4357 23.796L22.2746 23.9142L22.339 23.7208L22.1779 23.6026H22.3713L22.4357 23.4093Z" fill="#002279"/>
<path d="M15.4854 19.3058C17.5654 19.0143 19.678 19.0469 21.7481 19.4025C22.7262 19.614 23.6854 19.905 24.6162 20.2726V20.09L24.4229 19.9396H24.6699L24.7451 19.7033L24.8203 19.9396H25.0674L24.8633 20.09L24.9385 20.3263L24.7451 20.1759L24.5947 20.2834C26.579 21.0351 28.4019 22.158 29.9658 23.592C30.0251 23.2116 30.0574 22.8275 30.0625 22.4425C30.0913 20.682 29.5083 18.9661 28.4131 17.5874C27.3179 16.2088 25.7783 15.2529 24.0569 14.8827C22.3355 14.5126 20.539 14.7512 18.9739 15.5578C17.4088 16.3644 16.172 17.6891 15.4746 19.3058H15.4854Z" fill="#002279"/>
<path d="M29.9551 23.6027C29.9551 23.7316 29.9551 23.8712 29.8906 24.0001C29.9551 23.8605 29.9551 23.7316 29.9551 23.6027Z" fill="white"/>
<path d="M29.708 24.8165C29.708 24.8165 29.8262 24.4406 29.9121 24.0001C29.8569 24.2763 29.7852 24.549 29.6973 24.8165H29.708Z" fill="white"/>
<path d="M15.0771 20.4982L15.1416 20.2189C15.1201 20.3156 15.0986 20.4122 15.0771 20.4982Z" fill="white"/>
<path d="M16.7529 19.4347H16.667V19.6603H16.7637C16.8711 19.6603 16.9248 19.5959 16.9141 19.5207C16.9033 19.4455 16.8604 19.424 16.7529 19.4347Z" fill="white"/>
<path d="M17.709 19.381H17.5908L17.6445 19.8966H17.7305C17.9346 19.8966 18.0313 19.7892 18.0205 19.6173C18.0098 19.4454 17.9131 19.381 17.709 19.381Z" fill="white"/>
<path d="M22.8008 20.004H22.7148L22.6504 20.2404H22.7256C22.833 20.2404 22.9082 20.2404 22.9404 20.1544C22.9727 20.0685 22.8975 20.0363 22.8008 20.004Z" fill="white"/>
<path d="M15.7647 19.5528C15.7321 19.5586 15.7013 19.5715 15.6742 19.5905C15.6472 19.6096 15.6247 19.6343 15.6083 19.663C15.5919 19.6917 15.582 19.7236 15.5794 19.7566C15.5767 19.7895 15.5813 19.8226 15.5928 19.8536C15.6034 19.9203 15.6397 19.9801 15.6939 20.0203C15.7482 20.0604 15.816 20.0777 15.8828 20.0685C15.915 20.0641 15.9457 20.0526 15.9728 20.0347C15.9998 20.0168 16.0225 19.993 16.039 19.9651C16.0555 19.9371 16.0655 19.9059 16.0683 19.8735C16.071 19.8412 16.0663 19.8087 16.0547 19.7784C16.0522 19.7438 16.0425 19.7102 16.0262 19.6796C16.0099 19.6491 15.9873 19.6223 15.9599 19.601C15.9326 19.5797 15.9011 19.5644 15.8674 19.5561C15.8338 19.5478 15.7988 19.5467 15.7647 19.5528Z" fill="white"/>
<path d="M29.5041 23.9679C29.529 23.9467 29.549 23.9204 29.5627 23.8907C29.5764 23.861 29.5835 23.8287 29.5835 23.796C29.5835 23.7633 29.5764 23.731 29.5627 23.7014C29.549 23.6717 29.529 23.6453 29.5041 23.6242C29.4801 23.6001 29.4516 23.5811 29.4203 23.5681C29.389 23.555 29.3554 23.5483 29.3214 23.5483C29.2875 23.5483 29.2539 23.555 29.2226 23.5681C29.1912 23.5811 29.1628 23.6001 29.1388 23.6242C29.1154 23.6463 29.0968 23.6729 29.084 23.7025C29.0713 23.732 29.0647 23.7639 29.0647 23.796C29.0647 23.8282 29.0713 23.8601 29.084 23.8896C29.0968 23.9192 29.1154 23.9458 29.1388 23.9679C29.1885 24.014 29.2537 24.0396 29.3214 24.0396C29.3892 24.0396 29.4544 24.014 29.5041 23.9679Z" fill="white"/>
<path d="M23.6816 20.2726H23.5957L23.5205 20.4982H23.6064C23.6425 20.5143 23.6831 20.5166 23.7207 20.5047C23.7584 20.4928 23.7903 20.4676 23.8105 20.4337C23.832 20.3693 23.7783 20.3156 23.6816 20.2726Z" fill="white"/>
<path d="M24.584 20.3263C23.6532 19.9587 22.694 19.6677 21.7158 19.4562C19.6458 19.1005 17.5331 19.0679 15.4531 19.3595V19.4454L15.3672 19.6495L15.2275 20.0363C15.2073 20.113 15.1822 20.1883 15.1523 20.2618L15.0879 20.5411C17.4421 20.1697 19.846 20.2572 22.167 20.799C24.9765 21.5009 27.563 22.9014 29.6865 24.8703C29.7745 24.6027 29.8462 24.33 29.9014 24.0538C29.9014 23.9249 29.9014 23.7853 29.9658 23.6564C28.4019 22.2224 26.579 21.0995 24.5947 20.3478L24.584 20.3263ZM15.8828 20.1437C15.7931 20.1593 15.7008 20.1386 15.6263 20.0863C15.5518 20.0339 15.5011 19.9541 15.4854 19.8644C15.4724 19.8219 15.4691 19.777 15.4756 19.733C15.4821 19.6891 15.4982 19.6471 15.5229 19.6101C15.5475 19.5731 15.5801 19.5421 15.6182 19.5192C15.6563 19.4963 15.6989 19.4821 15.7432 19.4777C15.7884 19.4684 15.835 19.4683 15.8803 19.4774C15.9255 19.4865 15.9685 19.5046 16.0066 19.5307C16.0447 19.5567 16.0771 19.5902 16.102 19.6291C16.1269 19.668 16.1437 19.7115 16.1514 19.757C16.1643 19.7995 16.1676 19.8443 16.1611 19.8883C16.1546 19.9323 16.1385 19.9743 16.1138 20.0112C16.0892 20.0482 16.0566 20.0793 16.0186 20.1022C15.9805 20.1251 15.9378 20.1393 15.8936 20.1437H15.8828ZM17.0645 20.004L16.9678 19.8214C16.956 19.7856 16.9329 19.7546 16.9018 19.7333C16.8708 19.7119 16.8335 19.7014 16.7959 19.7033H16.71V19.9825H16.6133L16.5166 19.3488H16.6992C16.7723 19.3234 16.8518 19.3234 16.9248 19.3488C16.963 19.378 16.9897 19.4199 17 19.4669C17.0044 19.5063 16.995 19.546 16.9735 19.5793C16.9519 19.6126 16.9196 19.6374 16.8818 19.6495C16.9277 19.6518 16.9713 19.6704 17.0048 19.7019C17.0383 19.7334 17.0594 19.7757 17.0645 19.8214C17.0815 19.8819 17.1068 19.9397 17.1397 19.9933L17.0645 20.004ZM18.0635 19.8751C17.974 19.9425 17.8639 19.9766 17.752 19.9718H17.5801C17.5801 19.757 17.5801 19.5529 17.5264 19.338H17.7305C17.8364 19.3277 17.9427 19.3542 18.0313 19.4132C18.0681 19.4381 18.0982 19.4717 18.1188 19.5111C18.1394 19.5505 18.1499 19.5944 18.1494 19.6388C18.149 19.6846 18.1382 19.7297 18.1177 19.7706C18.0972 19.8116 18.0676 19.8473 18.0313 19.8751H18.0635ZM19.0195 19.9718H18.6113V19.3273H19.0088V19.4025H18.708V19.6066H18.9981V19.671H18.708V19.9074H19.0195V19.9718ZM20.169 20.0685H20.0723V19.8214C20.0772 19.7284 20.0772 19.6352 20.0723 19.5421L19.9649 19.7784L19.8145 20.0685H19.75L19.6426 19.7462C19.6426 19.6603 19.5889 19.5743 19.5674 19.4992C19.5674 19.5743 19.5674 19.6818 19.5674 19.7784V20.047H19.4815L19.5459 19.4025H19.6748L19.7822 19.7247C19.8119 19.7974 19.8335 19.873 19.8467 19.9503C19.8739 19.8766 19.9062 19.8048 19.9434 19.7355C19.9434 19.6388 20.04 19.5421 20.0938 19.4454H20.2119L20.169 20.0685ZM21.6406 19.7247L21.3613 19.671V19.8751L21.6406 19.9288V19.9933L21.3613 19.9396V20.1652L21.6621 20.2296V20.2941L21.2647 20.2189L21.3613 19.5851L21.7588 19.6603L21.6406 19.7247ZM22.9727 20.3156C22.9353 20.3315 22.8951 20.3397 22.8545 20.3397C22.8139 20.3397 22.7737 20.3315 22.7363 20.3156H22.6611L22.5967 20.5626H22.5108C22.5645 20.3585 22.6182 20.1544 22.6611 19.9503H22.8438C22.9171 19.9671 22.9841 20.0044 23.0371 20.0577C23.0503 20.0806 23.0573 20.1065 23.0573 20.1329C23.0573 20.1593 23.0503 20.1853 23.0371 20.2081C23.0305 20.2323 23.0183 20.2546 23.0015 20.2733C22.9847 20.2919 22.9638 20.3064 22.9404 20.3156H22.9727ZM23.7461 20.5734C23.7584 20.5984 23.7648 20.626 23.7648 20.6539C23.7648 20.6819 23.7584 20.7094 23.7461 20.7345C23.7401 20.7952 23.7401 20.8564 23.7461 20.9171H23.6494C23.6459 20.8635 23.6459 20.8096 23.6494 20.756C23.6562 20.7219 23.6501 20.6865 23.6322 20.6567C23.6144 20.6269 23.586 20.6049 23.5527 20.5949H23.4668L23.3809 20.8634H23.2949L23.4883 20.2618L23.6709 20.3156C23.7444 20.3308 23.8095 20.3729 23.8535 20.4337C23.8639 20.4536 23.8693 20.4757 23.8693 20.4982C23.8693 20.5206 23.8639 20.5427 23.8535 20.5626C23.8329 20.5756 23.8094 20.5834 23.785 20.5852C23.7607 20.5871 23.7363 20.583 23.7139 20.5734H23.7461ZM29.1172 23.5919C29.1494 23.5571 29.1884 23.5293 29.2319 23.5103C29.2753 23.4913 29.3222 23.4815 29.3696 23.4815C29.4171 23.4815 29.464 23.4913 29.5074 23.5103C29.5509 23.5293 29.5899 23.5571 29.6221 23.5919C29.6557 23.6191 29.6829 23.6535 29.7015 23.6925C29.7201 23.7316 29.7298 23.7743 29.7298 23.8175C29.7298 23.8608 29.7201 23.9035 29.7015 23.9425C29.6829 23.9815 29.6557 24.0159 29.6221 24.0431C29.5559 24.1074 29.4673 24.1434 29.375 24.1434C29.2827 24.1434 29.1941 24.1074 29.1279 24.0431C29.0915 24.0198 29.0605 23.9889 29.0371 23.9525C29.0137 23.9161 28.9984 23.8751 28.9923 23.8323C28.9862 23.7895 28.9894 23.7458 29.0017 23.7043C29.014 23.6629 29.035 23.6245 29.0635 23.5919H29.1172ZM28.4297 23.3663C28.5049 23.4308 28.5801 23.4308 28.6231 23.3663C28.666 23.3019 28.6231 23.2697 28.6231 23.1837C28.6231 23.0978 28.5264 23.0011 28.6231 22.9259C28.7197 22.8507 28.8164 22.8507 28.9346 22.9259C28.9271 22.9692 28.9086 23.0099 28.8809 23.0441H28.8164C28.7953 22.9968 28.7619 22.956 28.7197 22.9259C28.7087 22.9142 28.6954 22.9049 28.6806 22.8985C28.6658 22.8921 28.6499 22.8889 28.6338 22.8889C28.6177 22.8889 28.6018 22.8921 28.587 22.8985C28.5722 22.9049 28.5589 22.9142 28.5479 22.9259C28.5479 22.9259 28.5479 23.0226 28.5479 23.1085C28.5479 23.1945 28.6338 23.3019 28.5479 23.3663C28.4619 23.4308 28.3652 23.4523 28.2256 23.3663C28.1766 23.3246 28.1364 23.2735 28.1074 23.216H28.1719C28.1929 23.2544 28.2221 23.2877 28.2573 23.3137C28.2926 23.3397 28.3331 23.3576 28.376 23.3663H28.4297ZM27.6348 22.7326C27.6536 22.7872 27.6918 22.8331 27.7422 22.8615C27.8174 22.9152 27.8926 22.9152 27.9356 22.8615C27.9785 22.8077 27.9356 22.7648 27.9356 22.6788C27.9356 22.5929 27.8281 22.4962 27.8819 22.4318C27.9356 22.3673 28.0645 22.3458 28.1826 22.4318C28.2313 22.4652 28.2718 22.5093 28.3008 22.5607H28.2363C28.2114 22.519 28.1785 22.4825 28.1397 22.4533C28.0537 22.4533 27.9893 22.4533 27.9678 22.4533C27.9463 22.4533 27.9678 22.5499 27.9678 22.6359C27.9678 22.7218 28.0645 22.8185 27.9678 22.8937C27.8711 22.9689 27.7852 22.9904 27.6455 22.8937C27.5891 22.8617 27.544 22.8129 27.5166 22.754L27.6348 22.7326ZM27.2266 21.8302L27.5703 22.0451V22.0988L27.2158 21.9699L27.0977 22.1417L27.3447 22.2921V22.3458L27.1084 22.1954L26.9795 22.3888L27.2373 22.5607V22.6144L26.8936 22.3995L27.2266 21.8302ZM26.4102 21.379L26.5713 21.4542C26.6461 21.4798 26.7079 21.5338 26.7432 21.6046C26.7535 21.6245 26.7589 21.6466 26.7589 21.6691C26.7589 21.6915 26.7535 21.7136 26.7432 21.7335C26.723 21.7677 26.6917 21.7938 26.6545 21.8075C26.6173 21.8212 26.5766 21.8216 26.5391 21.8087C26.5522 21.8335 26.5591 21.8612 26.5591 21.8893C26.5591 21.9174 26.5522 21.945 26.5391 21.9699C26.5133 22.0281 26.4952 22.0895 26.4854 22.1525L26.4102 22.0988C26.4051 22.0488 26.4051 21.9984 26.4102 21.9484C26.4102 21.8624 26.4102 21.8195 26.3457 21.7658H26.2705L26.1309 22.0128H26.0449L26.4102 21.379ZM25.336 21.1749C25.3603 21.1315 25.3932 21.0935 25.4328 21.0633C25.4724 21.0331 25.5177 21.0113 25.5659 20.9992C25.6142 20.9871 25.6645 20.9851 25.7136 20.9931C25.7627 21.0012 25.8097 21.0192 25.8516 21.046L26.002 21.1535V21.2072C25.9676 21.1649 25.9233 21.1317 25.8731 21.1105C25.8419 21.0895 25.8066 21.0754 25.7696 21.0689C25.7326 21.0624 25.6947 21.0638 25.6582 21.0729C25.6218 21.082 25.5876 21.0987 25.558 21.1218C25.5284 21.1449 25.504 21.174 25.4863 21.2072C25.4687 21.239 25.4584 21.2744 25.456 21.3107C25.4536 21.347 25.4593 21.3834 25.4727 21.4173C25.486 21.4512 25.5067 21.4817 25.5332 21.5066C25.5597 21.5316 25.5914 21.5504 25.626 21.5617C25.6648 21.5708 25.7053 21.5708 25.7442 21.5617L25.6582 21.4327L25.5293 21.3683V21.3038C25.5975 21.346 25.6694 21.382 25.7442 21.4113L25.5938 21.6906L25.3789 21.6261C25.292 21.585 25.2205 21.5173 25.1748 21.4327C25.1644 21.3885 25.1638 21.3424 25.1731 21.2979C25.1824 21.2533 25.2013 21.2114 25.2285 21.1749H25.336ZM24.9707 21.0031C24.9544 21.0444 24.9298 21.0819 24.8984 21.1132C24.867 21.1445 24.8294 21.169 24.788 21.1852C24.7467 21.2013 24.7024 21.2087 24.6581 21.207C24.6137 21.2052 24.5702 21.1943 24.5303 21.1749C24.4898 21.1608 24.4526 21.1384 24.4212 21.1092C24.3897 21.08 24.3646 21.0447 24.3475 21.0053C24.3304 20.966 24.3215 20.9236 24.3215 20.8806C24.3216 20.8377 24.3305 20.7953 24.3477 20.756C24.364 20.7134 24.389 20.6746 24.421 20.642C24.4529 20.6095 24.4913 20.5838 24.5336 20.5667C24.5759 20.5496 24.6213 20.5413 24.6669 20.5425C24.7125 20.5436 24.7574 20.5541 24.7988 20.5734C24.832 20.5968 24.8601 20.6267 24.8814 20.6612C24.9027 20.6958 24.9168 20.7343 24.9228 20.7745C24.9288 20.8146 24.9267 20.8556 24.9164 20.8948C24.9062 20.9341 24.8881 20.9709 24.8633 21.0031H24.9707Z" fill="white"/>
<path d="M26.582 21.7013C26.582 21.6261 26.582 21.5616 26.4961 21.5079H26.4102L26.292 21.7013L26.3779 21.755C26.4639 21.7657 26.5498 21.755 26.582 21.7013Z" fill="white"/>
<path d="M24.3369 20.799C24.3209 20.8274 24.3112 20.859 24.3086 20.8915C24.306 20.924 24.3104 20.9567 24.3217 20.9874C24.3329 21.018 24.3506 21.0459 24.3737 21.069C24.3967 21.0921 24.4245 21.1099 24.4551 21.1213C24.4867 21.1329 24.5205 21.138 24.5542 21.1362C24.5879 21.1343 24.6209 21.1255 24.6511 21.1104C24.6813 21.0953 24.7081 21.0742 24.7298 21.0484C24.7515 21.0225 24.7677 20.9925 24.7773 20.9601C24.7927 20.9303 24.8015 20.8976 24.8032 20.8641C24.805 20.8307 24.7996 20.7972 24.7874 20.766C24.7752 20.7347 24.7565 20.7065 24.7325 20.683C24.7086 20.6596 24.6799 20.6415 24.6484 20.63C24.617 20.6185 24.5834 20.6138 24.55 20.6162C24.5165 20.6187 24.484 20.6282 24.4545 20.6442C24.4251 20.6602 24.3994 20.6823 24.3791 20.7089C24.3588 20.7356 24.3444 20.7663 24.3369 20.799Z" fill="white"/>
<path d="M16.291 20.9601L16.2266 20.7345L16.1514 20.9601H15.915L16.1084 21.0997L16.0332 21.3253L16.2266 21.1857L16.4092 21.3253L16.3447 21.0997L16.5273 20.9601H16.291Z" fill="white"/>
<path d="M19.5996 22.6788L19.5352 22.4855L19.4707 22.6788H19.2559L19.4277 22.8077L19.3633 23.0011L19.5352 22.8829L19.6963 23.0011L19.6318 22.8077L19.8037 22.6788H19.5996Z" fill="white"/>
<path d="M17.6875 23.7638L17.6553 23.6456L17.6123 23.7638H17.4834L17.5908 23.839L17.5479 23.9572L17.6553 23.882L17.752 23.9572L17.7197 23.839L17.8164 23.7638H17.6875Z" fill="white"/>
<path d="M16.9785 24.215L16.8926 23.9572L16.8174 24.215H16.5488L16.7637 24.3654L16.6777 24.6232L16.8926 24.462L17.1074 24.6232L17.0322 24.3654L17.2471 24.215H16.9785Z" fill="white"/>
<path d="M16.0117 24.9239L15.9473 24.7413L15.8936 24.9239H15.6895L15.8506 25.0421L15.7969 25.2247L15.9473 25.1173L16.1084 25.2247L16.0439 25.0421L16.2051 24.9239H16.0117Z" fill="white"/>
<path d="M18.5469 24.9991L18.4824 24.8058L18.418 24.9991H18.2246L18.3857 25.1173L18.3213 25.2999L18.4824 25.1818L18.6436 25.2999L18.5791 25.1173L18.7402 24.9991H18.5469Z" fill="white"/>
<path d="M18.3105 25.7726L18.2568 25.5792L18.1924 25.7726H17.999L18.1494 25.8907L18.0957 26.0734L18.2568 25.9552L18.4072 26.0734L18.3535 25.8907L18.5039 25.7726H18.3105Z" fill="white"/>
<path d="M19.4492 26.4601L19.374 26.2452L19.3096 26.4601H19.0947L19.2666 26.589L19.2021 26.7931L19.374 26.6642L19.5566 26.7931L19.4922 26.589L19.6641 26.4601H19.4492Z" fill="white"/>
<path d="M22.4893 25.837L22.4248 25.6222L22.3604 25.837H22.1455L22.3174 25.9659L22.2529 26.1808L22.4248 26.0411L22.6074 26.1808L22.5322 25.9659L22.7148 25.837H22.4893Z" fill="white"/>
<path d="M23.1553 24.6232L23.3164 24.4943L23.4883 24.6232L23.4238 24.4191L23.585 24.3009H23.3809L23.3164 24.1075L23.2627 24.3009H23.0586L23.2197 24.4191L23.1553 24.6232Z" fill="white"/>
<path d="M22.3281 23.7208L22.2637 23.9142L22.4248 23.796L22.5859 23.9142L22.5322 23.7208L22.6934 23.6027H22.4893L22.4248 23.4093L22.3604 23.6027H22.167L22.3281 23.7208Z" fill="white"/>
<path d="M21.8877 24.2794H21.7158L21.6514 24.1075L21.5977 24.2794H21.4258L21.5654 24.3868L21.5117 24.5695L21.6514 24.462L21.8018 24.5695L21.748 24.3868L21.8877 24.2794Z" fill="white"/>
<path d="M22.1025 24.9347L22.21 24.8595H22.0811L22.0381 24.7306L21.9951 24.8595H21.8662L21.9736 24.9347L21.9307 25.0636L22.0381 24.9884L22.1455 25.0636L22.1025 24.9347Z" fill="white"/>
<path d="M24.4014 22.2277L24.5088 22.1525L24.6162 22.2277L24.5732 22.0988L24.6807 22.0236H24.5518L24.5088 21.8947L24.4658 22.0236H24.3369L24.4443 22.0988L24.4014 22.2277Z" fill="white"/>
<path d="M24.7988 20.1759L24.9922 20.3263L24.917 20.09L25.1211 19.9396H24.874L24.7988 19.7032L24.7236 19.9396H24.4766L24.6699 20.09V20.2726L24.7988 20.1759Z" fill="white"/>
<path d="M27.5703 25.4503L27.7637 25.2999L27.9678 25.4503L27.8926 25.214L28.0859 25.0636H27.8389L27.7637 24.8273L27.6885 25.0636H27.4414L27.6455 25.214L27.5703 25.4503Z" fill="white"/>
<path d="M27.4414 26.6749L27.6025 26.5568L27.7744 26.6749L27.71 26.4816L27.8711 26.3527H27.667L27.6025 26.1593L27.5381 26.3527H27.334L27.5059 26.4816L27.4414 26.6749Z" fill="white"/>
<path d="M28.0107 25.7618H27.8066L27.9785 25.8907L27.9141 26.0841L28.0752 25.9659L28.2471 26.0841L28.1826 25.8907L28.3438 25.7618H28.1396L28.0752 25.5685L28.0107 25.7618Z" fill="white"/>
<path d="M28.6982 25.3859L28.8271 25.2892L28.9453 25.3859L28.9023 25.2355L29.0312 25.1388H28.8701L28.8271 24.9884L28.7734 25.1388H28.6123L28.7412 25.2355L28.6982 25.3859Z" fill="white"/>
<path d="M26.8721 27.0187L27.001 26.9327L27.1299 27.0187L27.0762 26.8683L27.2051 26.7824H27.0439L27.001 26.632L26.9473 26.7824H26.7969L26.9258 26.8683L26.8721 27.0187Z" fill="white"/>
<path d="M26.249 27.2013L26.1953 27.3732H26.0127L26.1523 27.4806L26.0986 27.6525L26.249 27.545L26.3887 27.6525L26.335 27.4806L26.4854 27.3732H26.3027L26.249 27.2013Z" fill="white"/>
<path d="M26.0771 26.8575L26.1953 26.7716L26.3135 26.8575L26.2705 26.7179L26.3887 26.632H26.2383L26.1953 26.4816L26.1523 26.632H26.002L26.1201 26.7179L26.0771 26.8575Z" fill="white"/>
<path d="M25.25 27.1368L25.3682 27.0509L25.4971 27.1368L25.4434 26.9972L25.5615 26.9005H25.4219L25.3682 26.7609L25.3252 26.9005H25.1748L25.293 26.9972L25.25 27.1368Z" fill="white"/>
<path d="M23.9932 26.9327L24.1113 26.8468L24.2402 26.9327L24.1865 26.7931L24.3047 26.6964H24.165L24.1113 26.5568L24.0684 26.6964H23.918L24.0361 26.7931L23.9932 26.9327Z" fill="white"/>
<path d="M26.292 28.1896L26.2383 28.0392L26.1953 28.1896H26.0449L26.1738 28.2755L26.1201 28.4152L26.2383 28.3292L26.3672 28.4152L26.3135 28.2755L26.4424 28.1896H26.292Z" fill="white"/>
<path d="M24.4873 27.5773L24.627 27.6847L24.5732 27.8566L24.7236 27.7491L24.874 27.8566L24.8096 27.6847L24.96 27.5773H24.7773L24.7236 27.4054L24.6699 27.5773H24.4873Z" fill="white"/>
<path d="M22.4785 28.4474L22.4463 28.3722L22.4248 28.4474H22.3389L22.4033 28.5011L22.3818 28.587L22.4463 28.5333L22.5215 28.587L22.4893 28.5011L22.5645 28.4474H22.4785Z" fill="white"/>
<path d="M15.754 19.4776C15.7097 19.4821 15.667 19.4962 15.629 19.5191C15.5909 19.542 15.5583 19.5731 15.5337 19.6101C15.509 19.6471 15.4929 19.689 15.4864 19.733C15.4799 19.777 15.4832 19.8218 15.4961 19.8644C15.5119 19.9541 15.5626 20.0339 15.6371 20.0862C15.7116 20.1386 15.8039 20.1593 15.8936 20.1436C15.9388 20.1407 15.9827 20.1276 16.0221 20.1054C16.0615 20.0831 16.0953 20.0522 16.1212 20.0151C16.147 19.9779 16.1641 19.9354 16.1712 19.8907C16.1783 19.846 16.1752 19.8003 16.1622 19.7569C16.1545 19.7114 16.1377 19.6679 16.1128 19.629C16.0879 19.5902 16.0554 19.5567 16.0173 19.5306C15.9793 19.5046 15.9363 19.4864 15.891 19.4773C15.8458 19.4682 15.7992 19.4683 15.754 19.4776ZM15.8829 20.0685C15.816 20.0777 15.7482 20.0604 15.694 20.0203C15.6397 19.9801 15.6034 19.9203 15.5928 19.8536C15.5813 19.8226 15.5767 19.7895 15.5794 19.7566C15.5821 19.7236 15.592 19.6917 15.6084 19.663C15.6248 19.6343 15.6473 19.6096 15.6743 19.5905C15.7013 19.5715 15.7322 19.5586 15.7647 19.5528C15.7988 19.5467 15.8338 19.5478 15.8675 19.5561C15.9011 19.5644 15.9326 19.5797 15.96 19.601C15.9873 19.6223 16.0099 19.6491 16.0262 19.6796C16.0426 19.7102 16.0523 19.7439 16.0547 19.7784C16.0664 19.8087 16.071 19.8412 16.0683 19.8735C16.0656 19.9059 16.0556 19.9372 16.039 19.9651C16.0225 19.993 15.9999 20.0168 15.9728 20.0347C15.9458 20.0526 15.915 20.0641 15.8829 20.0685Z" fill="#009B2D"/>
<path d="M16.9248 19.7032C16.9625 19.6911 16.9949 19.6663 17.0164 19.633C17.038 19.5997 17.0474 19.56 17.043 19.5206C17.0326 19.4736 17.006 19.4317 16.9678 19.4025C16.8947 19.3771 16.8152 19.3771 16.7422 19.4025H16.5596L16.6563 20.0362H16.7529V19.7569H16.8389C16.8765 19.7551 16.9137 19.7656 16.9448 19.787C16.9758 19.8083 16.999 19.8393 17.0107 19.8751L17.0752 20.0255H17.1719C17.1248 19.964 17.0885 19.895 17.0645 19.8214C17.0527 19.7917 17.0339 19.7654 17.0095 19.7448C16.9851 19.7241 16.956 19.7099 16.9248 19.7032ZM16.7959 19.7032H16.6992V19.4776H16.7852C16.8926 19.4776 16.9678 19.4777 16.9785 19.5851C16.9893 19.6925 16.9033 19.671 16.7959 19.6818V19.7032Z" fill="#009B2D"/>
<path d="M17.6982 19.3165H17.4941C17.4941 19.5313 17.4941 19.7354 17.5479 19.9503H17.7197C17.8316 19.9551 17.9417 19.9209 18.0313 19.8536C18.0648 19.8204 18.0901 19.7797 18.105 19.7349C18.1199 19.6901 18.1241 19.6425 18.1172 19.5958C18.1177 19.5513 18.1072 19.5075 18.0865 19.4681C18.0659 19.4287 18.0359 19.3951 17.999 19.3702C17.9078 19.3187 17.8017 19.2997 17.6982 19.3165ZM17.6982 19.9073H17.6123L17.5586 19.3917H17.6768C17.8809 19.3917 17.9775 19.4883 17.9883 19.6387C17.999 19.7891 17.9346 19.8966 17.7305 19.9073H17.6982Z" fill="#009B2D"/>
<path d="M18.665 19.6603H18.9551V19.6066H18.665V19.3917H18.9658V19.3165H18.5684V19.9611H18.9766V19.8966H18.6758L18.665 19.6603Z" fill="#009B2D"/>
<path d="M19.8682 19.7032C19.831 19.7726 19.7987 19.8443 19.7715 19.9181C19.7583 19.8408 19.7367 19.7651 19.707 19.6925L19.5996 19.3702H19.4707L19.4062 20.0148H19.4922V19.7462C19.4922 19.6495 19.4922 19.5421 19.4922 19.4669C19.4922 19.5421 19.4922 19.6281 19.5674 19.714L19.6748 20.0363H19.7393L19.8896 19.7462L19.9971 19.5099C20.002 19.6029 20.002 19.6962 19.9971 19.7892V20.0685H20.0938V19.4239H19.9756C19.9648 19.5099 19.9111 19.6066 19.8682 19.7032Z" fill="#009B2D"/>
<path d="M21.125 20.2189L21.5225 20.2941V20.2296L21.2217 20.1652V19.9396L21.501 19.9933V19.9288L21.2217 19.8751V19.671L21.5225 19.7247V19.6603L21.125 19.5851V20.2189Z" fill="#009B2D"/>
<path d="M22.8115 19.9396H22.6289C22.6289 20.1437 22.5322 20.3478 22.4785 20.5519H22.5645L22.6289 20.3048H22.7041C22.7415 20.3208 22.7816 20.329 22.8223 20.329C22.8629 20.329 22.9031 20.3208 22.9404 20.3048C22.9631 20.2933 22.9826 20.2766 22.9976 20.256C23.0125 20.2355 23.0224 20.2117 23.0264 20.1866C23.0396 20.1638 23.0465 20.1378 23.0465 20.1115C23.0465 20.0851 23.0396 20.0591 23.0264 20.0363C22.9662 19.9831 22.8913 19.9493 22.8115 19.9396ZM22.7256 20.2618H22.6504L22.7148 20.0255H22.8008C22.8975 20.0255 22.9619 20.1115 22.9404 20.1974C22.9189 20.2833 22.833 20.2833 22.7256 20.2618Z" fill="#009B2D"/>
<path d="M23.7031 20.2189L23.5098 20.1652L23.3164 20.7667H23.4023L23.4883 20.4982H23.5742C23.6075 20.5082 23.6358 20.5302 23.6537 20.56C23.6716 20.5898 23.6777 20.6252 23.6709 20.6593C23.6674 20.713 23.6674 20.7668 23.6709 20.8204H23.7676C23.7616 20.7597 23.7616 20.6985 23.7676 20.6378C23.7799 20.6127 23.7863 20.5852 23.7863 20.5573C23.7863 20.5293 23.7799 20.5018 23.7676 20.4767C23.806 20.4865 23.8468 20.4807 23.881 20.4606C23.9152 20.4405 23.9401 20.4076 23.9502 20.3693C23.9606 20.3494 23.966 20.3272 23.966 20.3048C23.966 20.2824 23.9606 20.2603 23.9502 20.2404C23.9129 20.2194 23.8716 20.2067 23.829 20.203C23.7864 20.1993 23.7435 20.2047 23.7031 20.2189ZM23.6064 20.5089H23.5205L23.5957 20.2833H23.6816C23.7783 20.2833 23.832 20.38 23.8105 20.4552C23.7887 20.4872 23.756 20.5103 23.7185 20.5201C23.681 20.53 23.6412 20.526 23.6064 20.5089Z" fill="#009B2D"/>
<path d="M24.2402 20.756C24.223 20.7953 24.2141 20.8377 24.2141 20.8806C24.2141 20.9235 24.2229 20.966 24.2401 21.0053C24.2572 21.0447 24.2823 21.08 24.3137 21.1092C24.3452 21.1384 24.3823 21.1608 24.4228 21.1749C24.4628 21.1943 24.5063 21.2052 24.5507 21.2069C24.595 21.2087 24.6392 21.2013 24.6806 21.1852C24.7219 21.169 24.7595 21.1445 24.7909 21.1132C24.8224 21.0818 24.847 21.0443 24.8633 21.003C24.8844 20.9642 24.8966 20.9212 24.8992 20.8771C24.9018 20.833 24.8946 20.7889 24.8782 20.7479C24.8618 20.7068 24.8365 20.6699 24.8043 20.6398C24.772 20.6096 24.7334 20.5869 24.6914 20.5734C24.65 20.5541 24.6051 20.5436 24.5595 20.5425C24.5138 20.5413 24.4685 20.5496 24.4262 20.5667C24.3838 20.5838 24.3455 20.6094 24.3135 20.642C24.2815 20.6746 24.2566 20.7134 24.2402 20.756ZM24.7773 20.9601C24.7677 20.9924 24.7515 21.0225 24.7298 21.0483C24.7081 21.0742 24.6813 21.0953 24.6511 21.1104C24.6209 21.1255 24.5879 21.1342 24.5542 21.1361C24.5205 21.138 24.4868 21.1329 24.4551 21.1212C24.4245 21.1099 24.3967 21.092 24.3737 21.0689C24.3506 21.0458 24.3329 21.018 24.3217 20.9873C24.3104 20.9567 24.306 20.924 24.3086 20.8915C24.3112 20.8589 24.3209 20.8274 24.3369 20.7989C24.3444 20.7663 24.3588 20.7356 24.3791 20.7089C24.3994 20.6822 24.4251 20.6601 24.4545 20.6442C24.484 20.6282 24.5165 20.6186 24.55 20.6162C24.5834 20.6137 24.617 20.6184 24.6484 20.6299C24.6799 20.6415 24.7086 20.6595 24.7325 20.683C24.7565 20.7064 24.7752 20.7347 24.7874 20.7659C24.7996 20.7971 24.805 20.8306 24.8032 20.8641C24.8015 20.8976 24.7927 20.9303 24.7773 20.9601Z" fill="#009B2D"/>
<path d="M25.6583 21.6905L25.8087 21.4112C25.734 21.382 25.6621 21.346 25.5938 21.3038V21.3683L25.7227 21.4327L25.6368 21.6046C25.598 21.6137 25.5575 21.6137 25.5186 21.6046C25.484 21.5933 25.4523 21.5745 25.4258 21.5496C25.3993 21.5246 25.3787 21.4941 25.3653 21.4602C25.352 21.4264 25.3463 21.39 25.3487 21.3536C25.351 21.3173 25.3614 21.282 25.379 21.2501C25.3967 21.2169 25.4211 21.1879 25.4507 21.1647C25.4803 21.1416 25.5144 21.1249 25.5509 21.1158C25.5873 21.1067 25.6253 21.1054 25.6623 21.1118C25.6993 21.1183 25.7345 21.1325 25.7657 21.1534C25.816 21.1746 25.8602 21.2078 25.8946 21.2501V21.1964L25.7442 21.089C25.7023 21.0621 25.6554 21.0441 25.6063 21.0361C25.5571 21.028 25.5069 21.0301 25.4586 21.0422C25.4103 21.0542 25.365 21.076 25.3255 21.1063C25.2859 21.1365 25.2529 21.1745 25.2286 21.2179C25.2102 21.2584 25.2007 21.3023 25.2007 21.3468C25.2007 21.3912 25.2102 21.4352 25.2286 21.4757C25.2743 21.5602 25.3458 21.628 25.4327 21.669L25.6583 21.6905Z" fill="#009B2D"/>
<path d="M26.2598 21.7228H26.335C26.4102 21.7765 26.4316 21.8195 26.3994 21.9054C26.3944 21.9554 26.3944 22.0058 26.3994 22.0558L26.4746 22.1095C26.4845 22.0465 26.5025 21.9851 26.5283 21.9269C26.5415 21.9021 26.5484 21.8744 26.5484 21.8463C26.5484 21.8182 26.5415 21.7906 26.5283 21.7657C26.5658 21.7787 26.6066 21.7782 26.6438 21.7645C26.681 21.7508 26.7123 21.7247 26.7324 21.6906C26.7428 21.6706 26.7482 21.6485 26.7482 21.6261C26.7482 21.6037 26.7428 21.5816 26.7324 21.5616C26.6971 21.4909 26.6354 21.4368 26.5605 21.4113L26.3994 21.3361L26.0771 21.8839H26.1631L26.2598 21.7228ZM26.4102 21.4757H26.4961C26.582 21.5294 26.625 21.5939 26.582 21.6691C26.5391 21.7443 26.4639 21.7335 26.3779 21.6691L26.292 21.6154L26.4102 21.4757Z" fill="#009B2D"/>
<path d="M27.1943 22.5284L26.9365 22.3566L27.0654 22.1632L27.3018 22.3136V22.2599L27.0547 22.1095L27.1729 21.9376L27.4307 22.0988V22.045L27.0869 21.8302L26.7324 22.3673L27.0762 22.5822L27.1943 22.5284Z" fill="#009B2D"/>
<path d="M27.9678 22.9152C28.0215 22.84 27.9678 22.7648 27.9678 22.6573C27.9678 22.5499 27.8926 22.5177 27.9678 22.4747C28.043 22.4318 28.0537 22.4747 28.1396 22.4747C28.1785 22.5039 28.2114 22.5404 28.2363 22.5822H28.3008C28.2718 22.5307 28.2313 22.4866 28.1826 22.4532C28.0645 22.3781 27.9355 22.3781 27.8818 22.4532C27.8281 22.5284 27.8818 22.6036 27.9355 22.7003C27.9893 22.797 28 22.84 27.9355 22.8829C27.8711 22.9259 27.8174 22.9366 27.7422 22.8829C27.6918 22.8546 27.6536 22.8087 27.6348 22.754H27.5703C27.5977 22.8129 27.6428 22.8617 27.6992 22.8937C27.8066 23.0441 27.9033 23.0441 27.9678 22.9152Z" fill="#009B2D"/>
<path d="M28.3223 23.42C28.4619 23.5167 28.5801 23.506 28.6445 23.42C28.709 23.3341 28.6445 23.2697 28.6445 23.1622C28.6445 23.0548 28.5693 23.0226 28.6445 22.9796C28.6556 22.9679 28.6689 22.9586 28.6837 22.9522C28.6985 22.9458 28.7144 22.9426 28.7305 22.9426C28.7466 22.9426 28.7625 22.9458 28.7773 22.9522C28.792 22.9586 28.8054 22.9679 28.8164 22.9796C28.8586 23.0097 28.892 23.0505 28.9131 23.0978L28.8809 23.0441C28.8585 22.9943 28.8208 22.9529 28.7734 22.9259C28.6553 22.8292 28.5264 22.8292 28.4619 22.9259C28.3975 23.0226 28.4619 23.087 28.4619 23.1837C28.4619 23.2804 28.5264 23.3234 28.4619 23.3663C28.3975 23.4093 28.3438 23.42 28.2686 23.3663C28.2212 23.3344 28.184 23.2897 28.1611 23.2374H28.0967C28.1514 23.32 28.2301 23.3837 28.3223 23.42Z" fill="#009B2D"/>
<path d="M29.5791 24.0323C29.6128 24.0051 29.6399 23.9708 29.6585 23.9317C29.6772 23.8927 29.6869 23.85 29.6869 23.8067C29.6869 23.7635 29.6772 23.7208 29.6585 23.6817C29.6399 23.6427 29.6128 23.6083 29.5791 23.5811C29.5469 23.5463 29.5079 23.5185 29.4645 23.4995C29.421 23.4805 29.3741 23.4707 29.3267 23.4707C29.2793 23.4707 29.2324 23.4805 29.1889 23.4995C29.1455 23.5185 29.1064 23.5463 29.0742 23.5811C29.0422 23.6094 29.0166 23.6441 28.9991 23.683C28.9815 23.7219 28.9724 23.764 28.9724 23.8067C28.9724 23.8494 28.9815 23.8916 28.9991 23.9305C29.0166 23.9694 29.0422 24.0041 29.0742 24.0323C29.1072 24.0658 29.1465 24.0923 29.1899 24.1105C29.2332 24.1286 29.2797 24.1379 29.3267 24.1379C29.3737 24.1379 29.4202 24.1286 29.4635 24.1105C29.5068 24.0923 29.5461 24.0658 29.5791 24.0323ZM29.1494 23.6563C29.1734 23.6323 29.2019 23.6132 29.2332 23.6002C29.2645 23.5872 29.2981 23.5805 29.3321 23.5805C29.366 23.5805 29.3996 23.5872 29.4309 23.6002C29.4623 23.6132 29.4907 23.6323 29.5147 23.6563C29.5396 23.6775 29.5596 23.7038 29.5733 23.7335C29.587 23.7632 29.5942 23.7955 29.5942 23.8282C29.5942 23.8609 29.587 23.8932 29.5733 23.9229C29.5596 23.9526 29.5396 23.9789 29.5147 24.0001C29.465 24.0461 29.3998 24.0717 29.3321 24.0717C29.2643 24.0717 29.1991 24.0461 29.1494 24.0001C29.126 23.978 29.1074 23.9514 29.0946 23.9218C29.0819 23.8922 29.0753 23.8604 29.0753 23.8282C29.0753 23.796 29.0819 23.7642 29.0946 23.7346C29.1074 23.7051 29.126 23.6784 29.1494 23.6563Z" fill="#009B2D"/>
<g style="mix-blend-mode:multiply">
<path d="M34.2033 6.23354L34.2062 6.23571C36.7577 8.10777 38.8312 10.5558 40.258 13.3805C41.6848 16.2052 42.4247 19.3268 42.4174 22.4914V22.4951C42.418 27.0406 40.8861 31.4536 38.0692 35.0211C35.2523 38.5886 31.315 41.1021 26.8932 42.1558C22.4715 43.2095 17.8237 42.7418 13.7007 40.8281C9.57763 38.9144 6.22016 35.6665 4.1707 31.6092C2.12124 27.5519 1.49946 22.9221 2.40588 18.4678C3.31229 14.0136 5.69396 9.99501 9.16605 7.06131C12.6381 4.12764 16.9978 2.45032 21.5409 2.30011C26.084 2.1499 30.545 3.53561 34.2033 6.23354Z" stroke="#E2E3EB" stroke-width="3" stroke-miterlimit="10"/>
</g>
</svg>
