<svg width="44" height="45" viewBox="0 0 44 45" fill="none" xmlns="http://www.w3.org/2000/svg">
<mask id="mask0_1105_16654" style="mask-type:luminance" maskUnits="userSpaceOnUse" x="0" y="0" width="44" height="45">
<path d="M22.21 44.272C34.2001 44.272 43.92 34.5522 43.92 22.562C43.92 10.5719 34.2001 0.852051 22.21 0.852051C10.2199 0.852051 0.5 10.5719 0.5 22.562C0.5 34.5522 10.2199 44.272 22.21 44.272Z" fill="white"/>
</mask>
<g mask="url(#mask0_1105_16654)">
<path d="M73.7511 0.809082H0.532227V22.6158H73.7511V0.809082Z" fill="white"/>
<path d="M22.5752 0.809082H0.532227V22.6158H22.5752V0.809082Z" fill="#0034A9"/>
<path d="M11.5215 14.5806L8.11621 16.7183L9.09376 12.8189L6.01074 10.2407L10.0283 9.96143L11.5215 6.23389L13.0254 9.96143L17.0322 10.2407L13.9492 12.8189L14.9268 16.7183L11.5215 14.5806Z" fill="white"/>
<path d="M73.7511 22.6157H0.532227V44.4224H73.7511V22.6157Z" fill="#D92911"/>
</g>
<g style="mix-blend-mode:multiply">
<path d="M34.2333 6.17251L34.2363 6.17467C36.7877 8.04673 38.8612 10.4947 40.288 13.3195C41.7149 16.1441 42.4547 19.2658 42.4474 22.4304V22.4341C42.448 26.9796 40.9161 31.3925 38.0992 34.96C35.2823 38.5275 31.345 41.0411 26.9233 42.0948C22.5015 43.1485 17.8538 42.6808 13.7307 40.767C9.60766 38.8533 6.25019 35.6054 4.20073 31.5481C2.15127 27.4908 1.52949 22.861 2.43591 18.4068C3.34232 13.9526 5.72399 9.93397 9.19608 7.00028C12.6681 4.06661 17.0279 2.38928 21.571 2.23907C26.114 2.08886 30.575 3.47458 34.2333 6.17251Z" stroke="#E2E3EB" stroke-width="3" stroke-miterlimit="10"/>
</g>
</svg>
