<svg width="44" height="45" viewBox="0 0 44 45" fill="none" xmlns="http://www.w3.org/2000/svg">
<path d="M43.51 22.5001C43.51 16.7303 41.218 11.1967 37.1382 7.11689C33.0583 3.03704 27.5248 0.744995 21.755 0.744995C15.9852 0.744995 10.4518 3.03704 6.3719 7.11689C2.29204 11.1967 0 16.7303 0 22.5001V22.7239H43.4951C43.4951 22.7239 43.51 22.5748 43.51 22.5001Z" fill="#FFCE00"/>
<path d="M40.0758 34.1763C42.2705 30.7567 43.4557 26.787 43.4951 22.7239H0C0.0429539 26.7844 1.22223 30.7517 3.40431 34.1763H40.0758Z" fill="#002C89"/>
<path d="M9.45149 40.4325C13.1796 42.9989 17.6175 44.3343 22.1428 44.2513C26.6681 44.1683 31.0541 42.6712 34.6856 39.9697C36.8156 38.3779 38.6415 36.4154 40.0758 34.1763H3.4043C4.98643 36.6411 7.04183 38.7675 9.45149 40.4325Z" fill="#CA0828"/>
<g style="mix-blend-mode:multiply">
<path d="M33.7952 6.23753L33.7982 6.2397C36.3499 8.1119 38.4235 10.5601 39.8504 13.385C41.2774 16.2099 42.0173 19.3318 42.01 22.4967V22.5003C42.0105 27.0462 40.4785 31.4594 37.6614 35.0272C34.8444 38.595 30.9067 41.1087 26.4846 42.1625C22.0626 43.2163 17.4144 42.7485 13.2911 40.8346C9.16772 38.9208 5.80999 35.6727 3.76038 31.615C1.71076 27.5574 1.08893 22.9273 1.99542 18.4727C2.9019 14.0182 5.28375 9.99928 8.7561 7.06536C12.2284 4.13147 16.5885 2.45402 21.1319 2.3038C25.6753 2.15358 30.1367 3.5394 33.7952 6.23753Z" stroke="#E2E3EB" stroke-width="3" stroke-miterlimit="10"/>
</g>
</svg>
