<svg width="44" height="45" viewBox="0 0 44 45" fill="none" xmlns="http://www.w3.org/2000/svg">
<path d="M20.9581 0.808297C17.014 0.949826 13.1825 2.16018 9.8728 4.31006V40.7134C10.7271 41.2657 11.617 41.7609 12.5367 42.1957C15.9466 43.783 19.7112 44.4544 23.4596 44.1436C27.208 43.8328 30.8106 42.5506 33.9125 40.4233V4.60008C30.107 1.99172 25.5695 0.663565 20.9581 0.808297Z" fill="white"/>
<path d="M7.67089 5.93204C7.12307 6.39393 6.59673 6.88804 6.10262 7.3929C3.87685 9.69567 2.18788 12.4622 1.15668 15.4942C0.125483 18.5263 -0.222416 21.7489 0.137901 24.9312C0.498219 28.1135 1.55784 31.1767 3.24085 33.9015C4.92387 36.6262 7.18864 38.9451 9.87292 40.6919V4.31006C9.10279 4.79987 8.36706 5.3418 7.67089 5.93204Z" fill="#00179D"/>
<path d="M41.0665 12.7208C40.0336 10.6787 38.681 8.81482 37.0599 7.19957C36.2873 6.41867 35.454 5.70031 34.5678 5.05125C34.353 4.89012 34.1274 4.76122 33.9126 4.61084V40.4234C35.0425 39.6516 36.0963 38.774 37.0599 37.8024C37.6456 37.2106 38.1979 36.5866 38.7141 35.9334C41.7314 32.108 43.3735 27.3785 43.376 22.5064C43.391 19.1077 42.5995 15.754 41.0665 12.7208Z" fill="#FF1D2E"/>
<g style="mix-blend-mode:multiply">
<path d="M33.7033 6.22695L33.7062 6.22912C36.2577 8.10118 38.3312 10.5492 39.758 13.3739C41.1848 16.1986 41.9247 19.3203 41.9174 22.4849V22.4885C41.918 27.0341 40.3861 31.447 37.5692 35.0145C34.7523 38.582 30.815 41.0956 26.3932 42.1493C21.9715 43.2029 17.3237 42.7352 13.2007 40.8215C9.07763 38.9078 5.72016 35.6599 3.6707 31.6026C1.62124 27.5453 0.999462 22.9155 1.90588 18.4613C2.81229 14.007 5.19396 9.98842 8.66605 7.05472C12.1381 4.12105 16.4978 2.44372 21.0409 2.29352C25.584 2.14331 30.045 3.52902 33.7033 6.22695Z" stroke="#E2E3EB" stroke-width="3" stroke-miterlimit="10"/>
</g>
</svg>
