<svg width="44" height="45" viewBox="0 0 44 45" fill="none" xmlns="http://www.w3.org/2000/svg">
<mask id="mask0_205_5940" style="mask-type:alpha" maskUnits="userSpaceOnUse" x="0" y="0" width="44" height="45">
<g style="mix-blend-mode:multiply">
<path d="M34.5936 5.02861C30.6638 2.13042 25.8716 0.641857 20.9914 0.803215C16.1111 0.964573 11.4278 2.76639 7.69795 5.91784C3.96815 9.06928 1.4097 13.3862 0.436003 18.171C-0.537693 22.9559 0.130242 27.9293 2.33182 32.2878C4.5334 36.6462 8.14008 40.1352 12.5692 42.1909C16.9983 44.2467 21.991 44.7492 26.7409 43.6173C31.4909 42.4854 35.7205 39.7852 38.7464 35.9529C41.7724 32.1206 43.418 27.3801 43.4174 22.4972C43.4252 19.0965 42.6302 15.7419 41.0969 12.7065C39.5636 9.67103 37.3354 7.04036 34.5936 5.02861Z" fill="white"/>
</g>
</mask>
<g mask="url(#mask0_205_5940)">
<path d="M35.7563 5.35431H23.1105V11.3543H41.1105C39.7337 9.04163 37.9166 7.00527 35.7563 5.35431Z" fill="#E0112C"/>
<path d="M23.1105 23.3543H44.1105C44.1105 22.9505 44.1105 22.5467 44.1105 22.1284C44.108 20.5207 43.9127 18.9186 43.5284 17.3543H23.1105V23.3543Z" fill="#E0112C"/>
<path d="M4.59012 36.3543H39.6156C41.1206 34.5488 42.3013 32.5218 43.1105 30.3543H1.11047C1.90801 32.5238 3.08414 34.5518 4.59012 36.3543Z" fill="#E0112C"/>
<path d="M22.1105 44.3543C25.5888 44.357 29.0175 43.6712 32.1105 42.3543H12.1105C15.2042 43.6694 18.6324 44.355 22.1105 44.3543Z" fill="#E0112C"/>
<path d="M18.1105 0.354309C17.7716 0.630134 17.4411 0.97505 17.1105 1.35431H18.0361L18.1105 0.354309Z" fill="#00247E"/>
<path d="M22.2158 0.354309C21.0696 0.360943 19.9257 0.450778 18.7939 0.622871L18.9823 1.17474H20.8973L19.3276 2.24863L19.9241 3.99382L18.3544 2.91994L16.7848 3.99382L17.3813 2.24863L15.8116 1.2046C12.9623 1.9733 10.297 3.2598 7.96334 4.99305C5.67877 6.71255 3.75173 8.82197 2.28115 11.2129C1.71113 12.1397 1.21781 13.1072 0.805677 14.1067H1.81028L2.39104 12.3615L2.98752 14.1067H4.88678L3.31713 15.1806L3.91361 16.9256L2.34395 15.8517L0.774301 16.9256L1.37078 15.1806L0.538863 14.5988C0.21022 15.4317 -0.0623845 16.2836 -0.277339 17.1493C-0.681522 18.767 -0.886972 20.4239 -0.889526 22.0865C-0.889526 22.5191 -0.889526 22.9367 -0.889526 23.3543H23.1105V0.41403C23.0006 0.399114 22.6239 0.354309 22.2158 0.354309ZM5.24782 9.73631H7.14709L7.74356 7.99112L8.32433 9.73631H10.2393L8.66965 10.8102L8.79525 11.2129L9.25041 12.5405L7.68076 11.4666L6.11111 12.5405L6.55061 11.2129L6.69187 10.8102L5.24782 9.73631ZM14.6657 16.9256L13.0961 15.8517L11.5264 16.9256L12.1229 15.1806L10.5533 14.1067H12.4682L13.049 12.3615L13.6455 14.1067H15.5447L13.9751 15.1806L14.6657 16.9256ZM9.32893 21.102L7.75927 20.0281L6.18962 21.102L6.77039 19.3568L5.20073 18.283H7.1L7.49241 17.1493L7.69647 16.5378L7.90054 17.1493L8.27724 18.283H10.1922L8.62256 19.3568L9.32893 21.102ZM19.0294 18.283H20.9443L19.3747 19.3568L19.9712 21.102L18.4015 20.0281L16.8319 21.102L17.4283 19.3568L15.8587 18.283H17.758L18.1504 17.1493L18.3544 16.5378L18.5585 17.1493L19.0294 18.283ZM19.9868 12.5405L18.4172 11.4666L16.8475 12.5405L17.3027 11.2129L17.444 10.8102L15.8743 9.73631H17.7737L18.3701 7.99112L18.9509 9.73631H20.8659L19.2962 10.8102L19.4375 11.2129L19.9868 12.5405ZM13.7082 5.55986H15.6075L14.0379 6.63392L14.6344 8.37894L13.0647 7.29012L11.4951 8.37894L12.0915 6.63392L10.5218 5.55986H12.4368L12.6252 4.99305L13.0176 3.81484L13.4257 4.99305L13.7082 5.55986Z" fill="#00247E"/>
</g>
<g style="mix-blend-mode:multiply">
<path d="M33.7033 6.23583L33.7062 6.238C36.2577 8.11006 38.3312 10.5581 39.758 13.3828C41.1848 16.2075 41.9247 19.3291 41.9174 22.4937V22.4974C41.918 27.0429 40.3861 31.4558 37.5692 35.0233C34.7523 38.5908 30.815 41.1044 26.3932 42.1581C21.9715 43.2118 17.3237 42.7441 13.2007 40.8304C9.07763 38.9166 5.72016 35.6688 3.6707 31.6115C1.62124 27.5541 0.999462 22.9244 1.90588 18.4701C2.81229 14.0159 5.19396 9.9973 8.66605 7.0636C12.1381 4.12993 16.4978 2.45261 21.0409 2.3024C25.584 2.15219 30.045 3.5379 33.7033 6.23583Z" stroke="#E2E3EB" stroke-width="3" stroke-miterlimit="10"/>
</g>
</svg>
